Coordinates
version=1
nRows=18
nColumns=34
inDegrees=no

Units are S.I. units (second, meters, Newtons, ...)
If the header above contains a line with 'inDegrees', this indicates whether rotational values are in degrees (yes) or radians (no).

endheader
time	pelvis_tilt	pelvis_list	pelvis_rotation	pelvis_tx	pelvis_ty	pelvis_tz	hip_flexion_r	hip_adduction_r	hip_rotation_r	knee_angle_r	ankle_angle_r	subtalar_angle_r	mtp_angle_r	hip_flexion_l	hip_adduction_l	hip_rotation_l	knee_angle_l	ankle_angle_l	subtalar_angle_l	mtp_angle_l	lumbar_extension	lumbar_bending	lumbar_rotation	arm_flex_r	arm_add_r	arm_rot_r	elbow_flex_r	pro_sup_r	arm_flex_l	arm_add_l	arm_rot_l	elbow_flex_l	pro_sup_l
0	-0.129352	-0.0959097	0.00330831	-0.0444251	0.888534	-0.207659	0.576386	0.0893633	-0.188746	0.265478	0.0631034	0.0685988	-0.10177	-0.22981	-0.0821908	-0.207077	0.338608	0.36633	0.348368	-0.102675	-0.0372512	0.354462	-0.173596	-0.308596	-0.270416	-0.431767	0.578184	1.57238	-0.0746674	-0.131426	0.0294029	0.614803	1.8639
0.01	-0.136306	-0.111987	-0.00130223	-0.0328299	0.892077	-0.207569	0.567787	0.109936	-0.178641	0.257201	0.0474104	0.0481907	-0.101775	-0.220564	-0.100883	-0.209241	0.364262	0.335922	0.329538	-0.102652	-0.0352709	0.382225	-0.178236	-0.303997	-0.277565	-0.430633	0.580077	1.57198	-0.0771516	-0.124746	0.0322793	0.608318	1.85964
0.02	-0.143697	-0.126674	-0.00484167	-0.0213888	0.895296	-0.207555	0.55971	0.128365	-0.169602	0.249299	0.0344216	0.029957	-0.101779	-0.208968	-0.118723	-0.210099	0.391783	0.303916	0.311087	-0.102629	-0.0320458	0.408203	-0.183681	-0.29978	-0.284062	-0.430437	0.582274	1.57205	-0.0799458	-0.118965	0.0361554	0.604392	1.85737
0.03	-0.151487	-0.139975	-0.00732528	-0.0101113	0.898202	-0.207615	0.552146	0.144636	-0.161639	0.241803	0.024142	0.0139212	-0.101784	-0.195043	-0.135692	-0.209649	0.421166	0.270308	0.29301	-0.102606	-0.0276163	0.432372	-0.189904	-0.295937	-0.289898	-0.431181	0.584771	1.57258	-0.0830423	-0.114091	0.0410144	0.603055	1.85713
0.04	-0.159564	-0.151883	-0.00880048	0.000991734	0.900811	-0.207743	0.545082	0.158727	-0.154782	0.234793	0.0165683	0.000135644	-0.101788	-0.178844	-0.151741	-0.207896	0.452391	0.235102	0.275302	-0.102584	-0.0220831	0.454683	-0.196823	-0.292442	-0.29505	-0.432866	0.587558	1.57355	-0.0864244	-0.110147	0.0467991	0.604386	1.85898
0.05	-0.167793	-0.162368	-0.00934342	0.0119101	0.903149	-0.207933	0.538498	0.170636	-0.149062	0.22841	0.0116574	-0.0113435	-0.101793	-0.160477	-0.166802	-0.204862	0.485414	0.198333	0.257964	-0.102561	-0.0156387	0.475075	-0.204275	-0.289256	-0.299483	-0.435479	0.590607	1.57489	-0.0900691	-0.107167	0.053393	0.608527	1.86304
0.06	-0.176023	-0.171421	-0.00906988	0.0226291	0.905238	-0.208169	0.532361	0.180404	-0.144499	0.222822	0.00929487	-0.0204957	-0.101797	-0.140102	-0.180801	-0.200604	0.520156	0.160099	0.241015	-0.102538	-0.00855924	0.49349	-0.212022	-0.286322	-0.303158	-0.438978	0.593875	1.57652	-0.0939491	-0.10519	0.0606147	0.615668	1.8693
0.07	-0.184089	-0.179066	-0.00813395	0.0331348	0.907103	-0.208437	0.526621	0.18813	-0.141081	0.218186	0.00927776	-0.0273686	-0.101802	-0.117931	-0.193678	-0.195219	0.556491	0.120609	0.224491	-0.102515	-0.00118459	0.509897	-0.219756	-0.283569	-0.306045	-0.443275	0.597301	1.57832	-0.0980323	-0.104244	0.0682322	0.626013	1.87754
0.08	-0.191815	-0.18537	-0.00671664	0.0434145	0.908771	-0.208716	0.521193	0.193993	-0.138758	0.214606	0.0113241	-0.0320834	-0.101806	-0.0942231	-0.205406	-0.188845	0.594237	0.0802137	0.208446	-0.102492	0.00610396	0.524313	-0.227127	-0.28092	-0.308137	-0.448231	0.600814	1.5801	-0.102277	-0.104336	0.075989	0.639743	1.88719
0.09	-0.199022	-0.190449	-0.00501012	0.0534643	0.910269	-0.208989	0.515946	0.198237	-0.137448	0.212099	0.0151014	-0.0348198	-0.101811	-0.0692845	-0.215994	-0.181656	0.633155	0.0394378	0.192943	-0.102469	0.0129055	0.536823	-0.233773	-0.278291	-0.309459	-0.453653	0.604341	1.58167	-0.106626	-0.105434	0.0836284	0.656944	1.89736
0.1	-0.205534	-0.194459	-0.00320253	0.0632858	0.911628	-0.209237	0.510688	0.201173	-0.137017	0.210572	0.0202438	-0.0358345	-0.101815	-0.0434535	-0.225501	-0.173852	0.672955	-0.001007	0.178039	-0.102446	0.0188263	0.547579	-0.239347	-0.275596	-0.310074	-0.459312	0.607805	1.58289	-0.110999	-0.107456	0.090888	0.677533	1.90713
0.11	-0.211189	-0.197586	-0.00146472	0.0728842	0.912882	-0.209448	0.505176	0.203144	-0.137288	0.209828	0.0263878	-0.0354337	-0.10182	-0.0170842	-0.234017	-0.165636	0.713308	-0.0402365	0.163759	-0.102423	0.0235071	0.556787	-0.24355	-0.272753	-0.31008	-0.464964	0.611131	1.58367	-0.115293	-0.110268	0.0975084	0.701207	1.91581
0.12	-0.215846	-0.200023	5.9238e-05	0.0822743	0.914056	-0.209613	0.499134	0.204493	-0.138058	0.2096	0.0332103	-0.0339247	-0.101824	0.00947529	-0.241649	-0.157196	0.753859	-0.0772375	0.150065	-0.1024	0.0266487	0.56469	-0.246151	-0.269686	-0.309604	-0.470366	0.614246	1.58404	-0.119384	-0.113679	0.103244	0.72742	1.92293
0.13	-0.219392	-0.201953	0.00125851	0.0914729	0.915178	-0.209729	0.492285	0.205529	-0.139118	0.209589	0.0404584	-0.0315713	-0.101829	0.0359049	-0.248496	-0.148681	0.794237	-0.110936	0.136833	-0.102377	0.0280358	0.571531	-0.247005	-0.266328	-0.308788	-0.475298	0.617086	1.58409	-0.123135	-0.117452	0.107869	0.755415	1.92833
0.14	-0.221754	-0.203531	0.00205974	0.100501	0.916272	-0.209796	0.484379	0.2065	-0.140271	0.209511	0.0479601	-0.0285714	-0.101833	0.0619337	-0.254636	-0.14019	0.834073	-0.140284	0.123832	-0.102354	0.0275538	0.577531	-0.246065	-0.262626	-0.307778	-0.479578	0.619597	1.58394	-0.126412	-0.121313	0.111186	0.784274	1.9321
0.15	-0.222903	-0.204875	0.00243028	0.109383	0.917358	-0.209819	0.475219	0.207582	-0.141331	0.209123	0.055617	-0.0250636	-0.101838	0.0873579	-0.260119	-0.131764	0.873013	-0.164344	0.110722	-0.102331	0.0251996	0.582872	-0.243388	-0.258543	-0.306711	-0.483075	0.621741	1.5837	-0.129102	-0.124975	0.113023	0.813003	1.93448
0.16	-0.222865	-0.206063	0.00238036	0.11814	0.918449	-0.209803	0.464682	0.208883	-0.142123	0.208237	0.0633794	-0.0211615	-0.101842	0.112054	-0.264964	-0.123387	0.910726	-0.182371	0.0970727	-0.102308	0.0210822	0.58768	-0.239128	-0.254064	-0.305694	-0.485709	0.623505	1.58348	-0.131125	-0.128157	0.113235	0.840626	1.9358
0.17	-0.221714	-0.207147	0.00196058	0.126792	0.919553	-0.209753	0.452722	0.210451	-0.142471	0.206726	0.071212	-0.0170025	-0.101847	0.135983	-0.269171	-0.114996	0.946915	-0.193868	0.0823964	-0.102285	0.0154125	0.592028	-0.233524	-0.249198	-0.304801	-0.487454	0.624902	1.58331	-0.132449	-0.130609	0.111713	0.866279	1.93644
